<svg xmlns="http://www.w3.org/2000/svg" xmlns:xlink="http://www.w3.org/1999/xlink" width="1280" zoomAndPan="magnify" viewBox="0 0 960 540.000001" height="720" preserveAspectRatio="xMidYMid meet" version="1.0"><defs><g/><clipPath id="158e9dedc3"><path d="M 0.886719 0 L 959.113281 0 L 959.113281 539 L 0.886719 539 Z M 0.886719 0 " clip-rule="nonzero"/></clipPath><clipPath id="71020a80bb"><path d="M 127 179 L 217 179 L 217 317 L 127 317 Z M 127 179 " clip-rule="nonzero"/></clipPath><clipPath id="a0bbc8f1d9"><path d="M 141.882812 168.402344 L 228.71875 184.617188 L 201.925781 328.117188 L 115.089844 311.902344 Z M 141.882812 168.402344 " clip-rule="nonzero"/></clipPath><clipPath id="ce3c81f5d2"><path d="M 141.882812 168.402344 L 228.71875 184.617188 L 201.925781 328.117188 L 115.089844 311.902344 Z M 141.882812 168.402344 " clip-rule="nonzero"/></clipPath></defs><g clip-path="url(#158e9dedc3)"><path fill="#ffffff" d="M 0.886719 0 L 959.113281 0 L 959.113281 539 L 0.886719 539 Z M 0.886719 0 " fill-opacity="1" fill-rule="nonzero"/><path fill="#000000" d="M 0.886719 0 L 959.113281 0 L 959.113281 539 L 0.886719 539 Z M 0.886719 0 " fill-opacity="1" fill-rule="nonzero"/></g><g clip-path="url(#71020a80bb)"><g clip-path="url(#a0bbc8f1d9)"><g clip-path="url(#ce3c81f5d2)"><path fill="#f5f5f5" d="M 129.527344 250.71875 L 165.054688 257.351562 C 165.820312 257.492188 166.488281 257.980469 166.855469 258.664062 C 167.230469 259.351562 167.273438 260.171875 166.964844 260.898438 L 143.96875 315.976562 C 143.917969 316.101562 143.804688 316.367188 144.152344 316.609375 C 144.503906 316.859375 144.707031 316.660156 144.808594 316.566406 L 215.90625 250.136719 C 216.664062 249.421875 216.949219 248.40625 216.660156 247.414062 C 216.363281 246.414062 215.578125 245.710938 214.566406 245.523438 L 179.039062 238.886719 C 178.273438 238.746094 177.601562 238.261719 177.234375 237.574219 C 176.859375 236.886719 176.816406 236.066406 177.128906 235.339844 L 200.121094 180.261719 C 200.171875 180.136719 200.285156 179.871094 199.9375 179.632812 C 199.847656 179.574219 199.769531 179.539062 199.703125 179.523438 C 199.492188 179.484375 199.359375 179.605469 199.28125 179.671875 L 128.183594 246.105469 C 127.425781 246.816406 127.140625 247.832031 127.429688 248.824219 C 127.726562 249.824219 128.511719 250.527344 129.527344 250.71875 " fill-opacity="1" fill-rule="nonzero"/></g></g></g><g fill="#ffffff" fill-opacity="1"><g transform="translate(256.692154, 286.252509)"><g><path d="M 48.75 -75.59375 L 48.75 -60.46875 L 22.71875 -60.46875 L 22.71875 -45.453125 L 47.640625 -45.453125 L 47.640625 -30.328125 L 22.71875 -30.328125 L 22.71875 -15.125 L 48.75 -15.125 L 48.75 0 L 5.5 0 L 5.5 -75.59375 Z M 48.75 -75.59375 "/></g></g></g><g fill="#ffffff" fill-opacity="1"><g transform="translate(309.826886, 286.252509)"><g><path d="M 22.71875 -75.59375 L 22.71875 -15.125 L 48.75 -15.125 L 48.75 0 L 5.5 0 L 5.5 -75.59375 Z M 22.71875 -75.59375 "/></g></g></g><g fill="#ffffff" fill-opacity="1"><g transform="translate(361.587438, 286.252509)"><g><path d="M 48.75 -75.59375 L 48.75 -60.46875 L 22.71875 -60.46875 L 22.71875 -45.453125 L 47.640625 -45.453125 L 47.640625 -30.328125 L 22.71875 -30.328125 L 22.71875 -15.125 L 48.75 -15.125 L 48.75 0 L 5.5 0 L 5.5 -75.59375 Z M 48.75 -75.59375 "/></g></g></g><g fill="#ffffff" fill-opacity="1"><g transform="translate(414.72217, 286.252509)"><g><path d="M 29.140625 0 L -2.5625 -75.59375 L 16.859375 -75.59375 L 35.921875 -25.9375 L 54.96875 -75.59375 L 74.40625 -75.59375 L 42.703125 0 Z M 29.140625 0 "/></g></g></g><g fill="#ffffff" fill-opacity="1"><g transform="translate(478.208003, 286.252509)"><g><path d="M 43.890625 -75.59375 L 74.40625 0 L 55.890625 0 L 50.296875 -15.125 L 21.53125 -15.125 L 15.9375 0 L -2.5625 0 L 27.953125 -75.59375 Z M 44.4375 -30.234375 L 36.015625 -52.21875 L 35.828125 -52.21875 L 27.390625 -30.234375 Z M 44.4375 -30.234375 "/></g></g></g><g fill="#ffffff" fill-opacity="1"><g transform="translate(545.633583, 286.252509)"><g><path d="M 0.734375 -60.46875 L 0.734375 -75.59375 L 53.875 -75.59375 L 53.875 -60.46875 L 35.921875 -60.46875 L 35.921875 0 L 18.6875 0 L 18.6875 -60.46875 Z M 0.734375 -60.46875 "/></g></g></g><g fill="#ffffff" fill-opacity="1"><g transform="translate(600.234106, 286.252509)"><g><path d="M 48.75 -75.59375 L 48.75 -60.46875 L 22.71875 -60.46875 L 22.71875 -45.453125 L 47.640625 -45.453125 L 47.640625 -30.328125 L 22.71875 -30.328125 L 22.71875 -15.125 L 48.75 -15.125 L 48.75 0 L 5.5 0 L 5.5 -75.59375 Z M 48.75 -75.59375 "/></g></g></g><g fill="#ffffff" fill-opacity="1"><g transform="translate(653.368838, 286.252509)"><g/></g></g><g fill="#ffffff" fill-opacity="1"><g transform="translate(678.378812, 286.252509)"><g><path d="M 43.890625 -75.59375 L 74.40625 0 L 55.890625 0 L 50.296875 -15.125 L 21.53125 -15.125 L 15.9375 0 L -2.5625 0 L 27.953125 -75.59375 Z M 44.4375 -30.234375 L 36.015625 -52.21875 L 35.828125 -52.21875 L 27.390625 -30.234375 Z M 44.4375 -30.234375 "/></g></g></g><g fill="#ffffff" fill-opacity="1"><g transform="translate(750.202315, 286.252509)"><g><path d="M 22.71875 -75.59375 L 22.71875 0 L 5.5 0 L 5.5 -75.59375 Z M 22.71875 -75.59375 "/></g></g></g></svg>